<?xml version="1.0" encoding="UTF-8"?>
<svg viewBox="0 0 496.06299 496.06299" xmlns="http://www.w3.org/2000/svg">
 <defs>
  <filter id="d">
   <feGaussianBlur stdDeviation="2.3911"/>
  </filter>
  <filter id="c">
   <feGaussianBlur stdDeviation=".5536"/>
  </filter>
  <filter id="b">
   <feGaussianBlur stdDeviation="1.1997"/>
  </filter>
  <linearGradient id="a" x1="434.8" x2="248.03" y1="596.17" y2="804.33" gradientUnits="userSpaceOnUse">
   <stop stop-color="#fff" offset="0"/>
   <stop stop-color="#fff" stop-opacity="0" offset="1"/>
  </linearGradient>
 </defs>
 <g transform="translate(0 -556.3)">
  <path transform="matrix(2.8462 0 0 2.9239 -572.56 119.45)" d="m344.52 235.04c0 30.168-25.124 54.624-56.115 54.624s-56.115-24.456-56.115-54.624 25.124-54.624 56.115-54.624 56.115 24.456 56.115 54.624z" fill="#4d4d4d" filter="url(#c)"/>
  <path transform="matrix(2.8325 0 0 2.9099 -568.87 123.39)" d="m344.52 235.04c0 30.168-25.124 54.624-56.115 54.624s-56.115-24.456-56.115-54.624 25.124-54.624 56.115-54.624 56.115 24.456 56.115 54.624z" fill="#f7f7f7"/>
  <path d="m247.98 701.58c-23.518 0-45.182 7.895-62.5 21.188 27.182 12.595 46.91 38.572 50.719 69.469-30.701-4.5007-56.282-24.751-68.281-52.281-14.161 17.611-22.656 39.987-22.656 64.344 0 24.385 8.498 46.788 22.688 64.406 11.965-27.403 37.377-47.587 67.906-52.188-4.6102 30.534-24.801 55.956-52.219 67.906 17.611 14.161 39.987 22.656 64.344 22.656 24.385 0 46.788-8.498 64.406-22.688-27.486-12.001-47.669-37.533-52.188-68.188 30.831 3.8329 56.747 23.506 69.344 50.625 13.314-17.323 21.25-38.997 21.25-62.531 0-23.518-7.9262-45.182-21.219-62.5-12.63 27.257-38.71 46.988-69.719 50.719 3.7188-30.997 23.427-57.04 50.656-69.688-17.323-13.314-38.997-21.25-62.531-21.25z" fill="#d40000" opacity=".8926"/>
  <path d="m89.651 807.89c0.0037-0.47005 0.01534-0.9347 0.02306-1.4057 1.4398-87.749 73.471-157.56 160.9-155.95s157.13 74.05 155.69 161.8c-8e-3 0.47095-0.0114 0.93576-0.0231 1.4057 0.66294-87.104-68.757-158.79-155.71-160.39s-158.68 67.464-160.88 154.54z" fill="#e6e6e6" filter="url(#b)" stroke="#f1f1f1"/>
  <path d="m89.094 804.22c-0.0041 0.47018 0 0.9351 0 1.4062 0 87.785 71.152 158.94 158.94 158.94s158.94-71.152 158.94-158.94c0-0.47115 4e-3 -0.93607 0-1.4062-0.76911 87.125-71.63 157.53-158.94 157.53s-158.17-70.406-158.94-157.53z" filter="url(#d)" opacity=".8"/>
  <path d="m248.63 652.27c-77.977 0-142.38 58.093-152.33 133.35 23.087-26.861 57.33-43.867 95.528-43.867 69.527 0 125.89 56.363 125.89 125.89 0 34.458-13.855 65.696-36.284 88.428 69.104-15.029 120.88-76.543 120.88-150.15 0-84.867-68.818-153.65-153.68-153.65z" fill="url(#a)"/>
 </g>
</svg>
